<?xml version="1.0" encoding="UTF-8"?>
<svg width="128px" height="128px" viewBox="0 0 128 128" version="1.1" xmlns="http://www.w3.org/2000/svg" xmlns:xlink="http://www.w3.org/1999/xlink">
    <title>Artboard</title>
    <defs>
        <rect id="path-1" x="0" y="0" width="128" height="128" rx="28"></rect>
        <path d="M1.16507645,70.9052138 L32.0394911,34.4446856 C33.2279184,33.041236 34.6283369,31.8328451 36.1898774,30.8634069 L82.0804101,2.3735691 C85.8717237,0.0198394163 90.6672301,0.0232204114 94.4552327,2.38229376 L140.193274,30.8667979 C141.746395,31.8340431 143.13956,33.0378866 144.322613,34.4349896 L175.205238,70.9052138 C176.253276,72.142873 176.101415,73.9973718 174.866048,75.0473537 C174.336003,75.4978577 173.663498,75.7451498 172.968408,75.7451498 L160.920419,75.7451498 L144.187302,92.5718334 C143.092038,93.6732211 141.856191,94.6246482 140.511903,95.4013673 L121.176263,106.573359 C119.651943,107.4541 117.813515,107.602843 116.167879,106.978576 L36.8449507,76.8876767 C34.8535979,76.1322629 32.7419456,75.7451498 30.612621,75.7451498 L3.40190641,75.7451498 C1.78187114,75.7451498 0.468573072,74.4294152 0.468573072,72.8063743 C0.468573072,72.1099947 0.715406941,71.4362421 1.16507645,70.9052138 Z" id="path-3"></path>
        <path d="M1.16507645,70.9052138 L32.0394911,34.4446856 C33.2279184,33.041236 34.6283369,31.8328451 36.1898774,30.8634069 L82.0804101,2.3735691 C85.8717237,0.0198394163 90.6672301,0.0232204114 94.4552327,2.38229376 L140.193274,30.8667979 C141.746395,31.8340431 143.13956,33.0378866 144.322613,34.4349896 L175.205238,70.9052138 C176.253276,72.142873 176.101415,73.9973718 174.866048,75.0473537 C174.336003,75.4978577 173.663498,75.7451498 172.968408,75.7451498 L160.920419,75.7451498 L144.187302,92.5718334 C143.092038,93.6732211 141.856191,94.6246482 140.511903,95.4013673 L121.176263,106.573359 C119.651943,107.4541 117.813515,107.602843 116.167879,106.978576 L36.8449507,76.8876767 C34.8535979,76.1322629 32.7419456,75.7451498 30.612621,75.7451498 L3.40190641,75.7451498 C1.78187114,75.7451498 0.468573072,74.4294152 0.468573072,72.8063743 C0.468573072,72.1099947 0.715406941,71.4362421 1.16507645,70.9052138 Z" id="path-5"></path>
        <path d="M1.16507645,70.9052138 L32.0394911,34.4446856 C33.2279184,33.041236 34.6283369,31.8328451 36.1898774,30.8634069 L82.0804101,2.3735691 C85.8717237,0.0198394163 90.6672301,0.0232204114 94.4552327,2.38229376 L140.193274,30.8667979 C141.746395,31.8340431 143.13956,33.0378866 144.322613,34.4349896 L175.205238,70.9052138 C176.253276,72.142873 176.101415,73.9973718 174.866048,75.0473537 C174.336003,75.4978577 173.663498,75.7451498 172.968408,75.7451498 L160.920419,75.7451498 L144.187302,92.5718334 C143.092038,93.6732211 141.856191,94.6246482 140.511903,95.4013673 L121.176263,106.573359 C119.651943,107.4541 117.813515,107.602843 116.167879,106.978576 L36.8449507,76.8876767 C34.8535979,76.1322629 32.7419456,75.7451498 30.612621,75.7451498 L3.40190641,75.7451498 C1.78187114,75.7451498 0.468573072,74.4294152 0.468573072,72.8063743 C0.468573072,72.1099947 0.715406941,71.4362421 1.16507645,70.9052138 Z" id="path-7"></path>
    </defs>
    <g id="Artboard" stroke="none" stroke-width="1" fill="none" fill-rule="evenodd">
        <mask id="mask-2" fill="white">
            <use xlink:href="#path-1"></use>
        </mask>
        <use id="Rectangle" fill="#211C1C" xlink:href="#path-1"></use>
        <g id="logo" mask="url(#mask-2)">
            <g transform="translate(-52.000000, 10.000000)">
                <g id="a-link">
                    <path d="M1.16507645,70.9052138 L32.0394911,34.4446856 C33.2279184,33.041236 34.6283369,31.8328451 36.1898774,30.8634069 L82.0804101,2.3735691 C85.8717237,0.0198394163 90.6672301,0.0232204114 94.4552327,2.38229376 L140.193274,30.8667979 C141.746395,31.8340431 143.13956,33.0378866 144.322613,34.4349896 L175.205238,70.9052138 C176.253276,72.142873 176.101415,73.9973718 174.866048,75.0473537 C174.336003,75.4978577 173.663498,75.7451498 172.968408,75.7451498 L160.920419,75.7451498 L144.187302,92.5718334 C143.092038,93.6732211 141.856191,94.6246482 140.511903,95.4013673 L121.176263,106.573359 C119.651943,107.4541 117.813515,107.602843 116.167879,106.978576 L36.8449507,76.8876767 C34.8535979,76.1322629 32.7419456,75.7451498 30.612621,75.7451498 L3.40190641,75.7451498 C1.78187114,75.7451498 0.468573072,74.4294152 0.468573072,72.8063743 C0.468573072,72.1099947 0.715406941,71.4362421 1.16507645,70.9052138 Z" id="a" fill="#2B7670" fill-rule="nonzero"></path>
                </g>
                <g id="Clipped">
                    <mask id="mask-4" fill="white">
                        <use xlink:href="#path-3"></use>
                    </mask>
                    <g id="a"></g>
                    <polygon id="Path" fill="#E07A15" fill-rule="nonzero" mask="url(#mask-4)" points="142.266667 21.7477953 142.266667 107.964888 205.246232 70.4656584"></polygon>
                </g>
                <g id="Clipped">
                    <mask id="mask-6" fill="white">
                        <use xlink:href="#path-5"></use>
                    </mask>
                    <g id="a"></g>
                    <polygon id="Path" fill="#AB5930" fill-rule="nonzero" mask="url(#mask-6)" points="179.303648 75.7451498 142.266667 75.7451498 142.266667 97.5261732"></polygon>
                </g>
                <g id="Clipped">
                    <mask id="mask-8" fill="white">
                        <use xlink:href="#path-7"></use>
                    </mask>
                    <g id="a"></g>
                    <ellipse id="Oval" fill="#000000" fill-rule="nonzero" mask="url(#mask-8)" cx="107.8" cy="53.6326531" rx="6.6" ry="6.6122449"></ellipse>
                </g>
            </g>
        </g>
    </g>
</svg>