
<svg width="240" height="147" xmlns="http://www.w3.org/2000/svg" xmlns:xlink="http://www.w3.org/1999/xlink">
  <defs>
    <path d="M5.58874061 98.5098743l42.10147459-49.62683c1.6205826-1.9102508 3.5302442-3.5550051 5.6596176-4.8745182L115.927832 5.23069128c5.169973-3.20368763 11.7093-3.19908572 16.874758.01187523l62.370056 38.77057509c2.117893 1.3165282 4.017663 2.955093 5.630917 4.8567053l42.112671 49.6400274c1.429142 1.6845917 1.222059 4.2087707-.462532 5.6379127-.722789.613186-1.639841.949778-2.587691.949778h-16.429076l-22.817887 22.902986c-1.493541 1.499111-3.178788 2.794109-5.011907 3.85131l-26.366783 15.206322c-2.078618 1.198786-4.585565 1.401242-6.829614.551545L54.2431146 106.652671c-2.7154811-1.028202-5.5950069-1.555106-8.4986314-1.555106H8.63896328c-2.209139 0-4-1.790861-4-4 0-.94785.33659164-1.8649022.94977733-2.5876907z" id="a"/>
  </defs>
  <g transform="translate(-4 -2)" fill="none" fill-rule="evenodd">
    <mask id="b" fill="#fff">
      <use xlink:href="#a"/>
    </mask>
    <use fill="#2B7670" xlink:href="#a"/>
    <path fill="#E07A15" mask="url(#b)" d="M198 31.6011658V148.952209l85.881226-51.0406184z"/>
    <path fill="#AB5930" mask="url(#b)" d="M248.504974 105.097565H198v29.646393z"/>
    <circle fill="#000" mask="url(#b)" cx="151" cy="75" r="9"/>
  </g>
</svg>