<svg xmlns="http://www.w3.org/2000/svg" xmlns:xlink="http://www.w3.org/1999/xlink" xmlns:lucid="lucid" width="1740" height="840">
  <g transform="translate(-60 -60)">
    <path d="M80 86c0-3.3 2.7-6 6-6h1348c3.3 0 6 2.7 6 6v788c0 3.3-2.7 6-6 6H86c-3.3 0-6-2.7-6-6z" stroke="#5e5e5e" stroke-width="3" fill="#e5e5e5"/>
    <use xlink:href="#a" transform="translate(92 109.77777778)"/>
    <use xlink:href="#b" transform="translate(179.4691358 109.77777778)"/>
    <use xlink:href="#c" transform="translate(192.98765432 109.77777778)"/>
    <use xlink:href="#d" transform="translate(244.71604938 109.77777778)"/>
    <use xlink:href="#e" transform="translate(352.0617284 109.77777778)"/>
    <path d="M709 171.7c0-3.3 2.7-6 6-6h464c3.3 0 6 2.7 6 6v616.6c0 3.3-2.7 6-6 6H715c-3.3 0-6-2.7-6-6z" stroke="#5e5e5e" stroke-width="3" fill="#fff"/>
    <use xlink:href="#f" transform="translate(721 195.4920635)"/>
    <use xlink:href="#g" transform="translate(845.62962963 195.4920635)"/>
    <path d="M114 314.57c0-3.3 2.7-6 6-6h464c3.3 0 6 2.7 6 6v102.3c0 3.3-2.7 6-6 6H120c-3.3 0-6-2.7-6-6z" stroke="#5e5e5e" stroke-width="3" fill="#fff"/>
    <use xlink:href="#h" transform="translate(288.98148148 369.63045635)"/>
    <use xlink:href="#g" transform="translate(359.35185185 369.63045635)"/>
    <path d="M114 457.43c0-3.32 2.7-6 6-6h464c3.3 0 6 2.68 6 6V788.3c0 3.3-2.7 6-6 6H120c-3.3 0-6-2.7-6-6z" stroke="#5e5e5e" stroke-width="3" fill="#fff"/>
    <use xlink:href="#i" transform="translate(312.65432099 625.7532242)"/>
    <path d="M114 171.7c0-3.3 2.7-6 6-6h464c3.3 0 6 2.7 6 6V274c0 3.3-2.7 6-6 6H120c-3.3 0-6-2.7-6-6z" stroke="#5e5e5e" stroke-width="3" fill="#fff"/>
    <use xlink:href="#j" transform="translate(282.22222222 226.7733135)"/>
    <use xlink:href="#g" transform="translate(366.11111111 226.7733135)"/>
    <path d="M760 371.7c0-3.3 2.7-6 6-6h260c3.3 0 6 2.7 6 6v245.16c0 3.3-2.7 6-6 6H766c-3.3 0-6-2.7-6-6z" stroke="#0c7cba" stroke-width="3" fill="#fff"/>
    <use xlink:href="#k" transform="translate(868.90123457 483.2420635)"/>
    <use xlink:href="#l" transform="translate(850.35185185 509.90873016)"/>
    <path d="M1406 294.3c0 7.88-38.06 14.27-85 14.27s-85-6.4-85-14.28V180c0-7.9 38.06-14.3 85-14.3s85 6.4 85 14.3z" stroke="#5e5e5e" stroke-width="3" fill="#fff"/>
    <path d="M1406 180c0 7.9-38.06 14.3-85 14.3s-85-6.4-85-14.3" stroke="#5e5e5e" stroke-width="3" fill="none"/>
    <use xlink:href="#m" transform="translate(1276.5 256.43849206)"/>
    <use xlink:href="#n" transform="translate(1335.69753086 256.43849206)"/>
    <path d="M1508 200.3c0-3.33 2.7-6 6-6h260c3.3 0 6 2.67 6 6V674c0 3.3-2.7 6-6 6h-260c-3.3 0-6-2.7-6-6z" stroke="#5e5e5e" stroke-width="3" fill="#fff"/>
    <use xlink:href="#o" transform="translate(1567.58024691 440.62599206)"/>
    <use xlink:href="#p" transform="translate(1655.11111111 440.62599206)"/>
    <path d="M592.5 517.45h51c3.3 0 6-2.7 6-6V464.7c0-3.3 2.7-6 6-6H689" stroke="#0c7cba" stroke-width="2" fill="none"/>
    <path d="M592.53 518.45h-1.03v-2h1.03z" fill="#0c7cba"/>
    <path d="M704.26 458.7L690 463.34v-9.27z" stroke="#0c7cba" stroke-width="2" fill="#0c7cba"/>
    <path d="M706.5 548.05h-51c-3.3 0-6 2.68-6 6v151.87c0 3.32-2.7 6-6 6H610" stroke="#0c7cba" stroke-width="2" fill="none"/>
    <path d="M707.5 549.05h-1.03v-2h1.03z" fill="#0c7cba"/>
    <path d="M594.74 711.92L609 707.3v9.26z" stroke="#0c7cba" stroke-width="2" fill="#0c7cba"/>
    <path d="M706.5 261.15h-51c-3.3 0-6-2.7-6-6v-7.44c0-3.3-2.7-6-6-6H610" stroke="#0c7cba" stroke-width="2" fill="none"/>
    <path d="M707.5 262.15h-1.03v-2h1.03z" fill="#0c7cba"/>
    <path d="M594.74 241.7l14.26-4.6v9.27z" stroke="#0c7cba" stroke-width="2" fill="#0c7cba"/>
    <path d="M592.5 195.8h51c3.3 0 6 2.7 6 6v5.85c0 3.3 2.7 6 6 6H689" stroke="#0c7cba" stroke-width="2" fill="none"/>
    <path d="M592.53 196.8h-1.03v-2h1.03z" fill="#0c7cba"/>
    <path d="M704.26 213.65L690 218.3V209z" stroke="#0c7cba" stroke-width="2" fill="#0c7cba"/>
    <path d="M1034.5 443.55H1315c3.3 0 6-2.68 6-6V328.57" stroke="#5e5e5e" stroke-width="2" fill="none"/>
    <path d="M1034.53 444.55h-1.03v-2h1.03z" fill="#5e5e5e"/>
    <path d="M1321 313.3l4.64 14.27h-9.28z" stroke="#5e5e5e" stroke-width="2" fill="#5e5e5e"/>
    <path d="M1034.5 494.3H1264c3.3 0 6 2.67 6 6v88.87c0 3.32 2.7 6 6 6h212" stroke="#5e5e5e" stroke-width="2" fill="none"/>
    <path d="M1034.53 495.3h-1.03v-2h1.03z" fill="#5e5e5e"/>
    <path d="M1503.26 595.17L1489 599.8v-9.26z" stroke="#5e5e5e" stroke-width="2" fill="#5e5e5e"/>
    <path d="M592.5 365.7h51c3.3 0 6-2.67 6-6v-26.8c0-3.3 2.7-6 6-6H689" stroke="#0c7cba" stroke-width="2" fill="none"/>
    <path d="M592.53 366.7h-1.03v-2h1.03z" fill="#0c7cba"/>
    <path d="M704.26 326.9L690 331.56v-9.27z" stroke="#0c7cba" stroke-width="2" fill="#0c7cba"/>
    <path d="M706.5 414.6h-51c-3.3 0-6-2.68-6-6v-12.58c0-3.3-2.7-6-6-6H610" stroke="#0c7cba" stroke-width="2" fill="none"/>
    <path d="M707.5 415.6h-1.03v-2h1.03z" fill="#0c7cba"/>
    <path d="M594.74 390.02L609 385.4v9.26z" stroke="#0c7cba" stroke-width="2" fill="#0c7cba"/>
    <path d="M760 686c0-3.3 2.7-6 6-6h396c3.3 0 6 2.7 6 6v80.86c0 3.3-2.7 6-6 6H766c-3.3 0-6-2.7-6-6z" stroke="#0c7cba" stroke-width="3" fill="#0c7cba"/>
    <use xlink:href="#q" transform="translate(824.81481481 730.34722222)"/>
    <use xlink:href="#r" transform="translate(849.4074074 730.34722222)"/>
    <use xlink:href="#s" transform="translate(887.87654321 730.34722222)"/>
    <use xlink:href="#t" transform="translate(937.11111111 730.34722222)"/>
    <use xlink:href="#u" transform="translate(967.67901235 730.34722222)"/>
    <use xlink:href="#v" transform="translate(1045.01234568 730.34722222)"/>
    <defs>
      <path fill="#333" d="M160-131c35 5 61 23 61 61C221 17 115-2 30 0v-248c76 3 177-17 177 60 0 33-19 50-47 57zm-97-11c50-1 110 9 110-42 0-47-63-36-110-37v79zm0 115c55-2 124 14 124-45 0-56-70-42-124-44v89" id="w"/>
      <path fill="#333" d="M114-163C36-179 61-72 57 0H25l-1-190h30c1 12-1 29 2 39 6-27 23-49 58-41v29" id="x"/>
      <path fill="#333" d="M100-194c62-1 85 37 85 99 1 63-27 99-86 99S16-35 15-95c0-66 28-99 85-99zM99-20c44 1 53-31 53-75 0-43-8-75-51-75s-53 32-53 75 10 74 51 75" id="y"/>
      <path fill="#333" d="M206 0h-36l-40-164L89 0H53L-1-190h32L70-26l43-164h34l41 164 42-164h31" id="z"/>
      <path fill="#333" d="M135-143c-3-34-86-38-87 0 15 53 115 12 119 90S17 21 10-45l28-5c4 36 97 45 98 0-10-56-113-15-118-90-4-57 82-63 122-42 12 7 21 19 24 35" id="A"/>
      <path fill="#333" d="M100-194c63 0 86 42 84 106H49c0 40 14 67 53 68 26 1 43-12 49-29l28 8c-11 28-37 45-77 45C44 4 14-33 15-96c1-61 26-98 85-98zm52 81c6-60-76-77-97-28-3 7-6 17-6 28h103" id="B"/>
      <path fill="#333" d="M87 75C49 33 22-17 22-94c0-76 28-126 65-167h31c-38 41-64 92-64 168S80 34 118 75H87" id="C"/>
      <path fill="#333" d="M24 0v-261h32V0H24" id="D"/>
      <path fill="#333" d="M96-169c-40 0-48 33-48 73s9 75 48 75c24 0 41-14 43-38l32 2c-6 37-31 61-74 61-59 0-76-41-82-99-10-93 101-131 147-64 4 7 5 14 7 22l-32 3c-4-21-16-35-41-35" id="E"/>
      <path fill="#333" d="M141-36C126-15 110 5 73 4 37 3 15-17 15-53c-1-64 63-63 125-63 3-35-9-54-41-54-24 1-41 7-42 31l-33-3c5-37 33-52 76-52 45 0 72 20 72 64v82c-1 20 7 32 28 27v20c-31 9-61-2-59-35zM48-53c0 20 12 33 32 33 41-3 63-29 60-74-43 2-92-5-92 41" id="F"/>
      <path fill="#333" d="M115-194c55 1 70 41 70 98S169 2 115 4C84 4 66-9 55-30l1 105H24l-1-265h31l2 30c10-21 28-34 59-34zm-8 174c40 0 45-34 45-75s-6-73-45-74c-42 0-51 32-51 76 0 43 10 73 51 73" id="G"/>
      <path fill="#333" d="M33-261c38 41 65 92 65 168S71 34 33 75H2C39 34 66-17 66-93S39-220 2-261h31" id="H"/>
      <path fill="#333" d="M143 0L79-87 56-68V0H24v-261h32v163l83-92h37l-77 82L181 0h-38" id="I"/>
      <path fill="#333" d="M177-190C167-65 218 103 67 71c-23-6-38-20-44-43l32-5c15 47 100 32 89-28v-30C133-14 115 1 83 1 29 1 15-40 15-95c0-56 16-97 71-98 29-1 48 16 59 35 1-10 0-23 2-32h30zM94-22c36 0 50-32 50-73 0-42-14-75-50-75-39 0-46 34-46 75s6 73 46 73" id="J"/>
      <path fill="#333" d="M84 4C-5 8 30-112 23-190h32v120c0 31 7 50 39 49 72-2 45-101 50-169h31l1 190h-30c-1-10 1-25-2-33-11 22-28 36-60 37" id="K"/>
      <path fill="#333" d="M117-194c89-4 53 116 60 194h-32v-121c0-31-8-49-39-48C34-167 62-67 57 0H25l-1-190h30c1 10-1 24 2 32 11-22 29-35 61-36" id="L"/>
      <path fill="#333" d="M85-194c31 0 48 13 60 33l-1-100h32l1 261h-30c-2-10 0-23-3-31C134-8 116 4 85 4 32 4 16-35 15-94c0-66 23-100 70-100zm9 24c-40 0-46 34-46 75 0 40 6 74 45 74 42 0 51-32 51-76 0-42-9-74-50-73" id="M"/>
      <path fill="#333" d="M185-189c-5-48-123-54-124 2 14 75 158 14 163 119 3 78-121 87-175 55-17-10-28-26-33-46l33-7c5 56 141 63 141-1 0-78-155-14-162-118-5-82 145-84 179-34 5 7 8 16 11 25" id="N"/>
      <path fill="#333" d="M24-231v-30h32v30H24zM24 0v-190h32V0H24" id="O"/>
      <path fill="#333" d="M59-47c-2 24 18 29 38 22v24C64 9 27 4 27-40v-127H5v-23h24l9-43h21v43h35v23H59v120" id="P"/>
      <path fill="#333" d="M30-248c87 1 191-15 191 75 0 78-77 80-158 76V0H30v-248zm33 125c57 0 124 11 124-50 0-59-68-47-124-48v98" id="Q"/>
      <path fill="#333" d="M266 0h-40l-56-210L115 0H75L2-248h35L96-30l15-64 43-154h32l59 218 59-218h35" id="R"/>
      <path fill="#333" d="M115-194c53 0 69 39 70 98 0 66-23 100-70 100C84 3 66-7 56-30L54 0H23l1-261h32v101c10-23 28-34 59-34zm-8 174c40 0 45-34 45-75 0-40-5-75-45-74-42 0-51 32-51 76 0 43 10 73 51 73" id="S"/>
      <path fill="#333" d="M212-179c-10-28-35-45-73-45-59 0-87 40-87 99 0 60 29 101 89 101 43 0 62-24 78-52l27 14C228-24 195 4 139 4 59 4 22-46 18-125c-6-104 99-153 187-111 19 9 31 26 39 46" id="T"/>
      <path fill="#333" d="M63-220v92h138v28H63V0H30v-248h175v28H63" id="U"/>
      <path fill="#333" d="M106-169C34-169 62-67 57 0H25v-261h32l-1 103c12-21 28-36 61-36 89 0 53 116 60 194h-32v-121c2-32-8-49-39-48" id="V"/>
      <path fill="#333" d="M143 4C61 4 22-44 18-125c-5-107 100-154 193-111 17 8 29 25 37 43l-32 9c-13-25-37-40-76-40-61 0-88 39-88 99 0 61 29 100 91 101 35 0 62-11 79-27v-45h-74v-28h105v86C228-13 192 4 143 4" id="W"/>
      <path fill="#333" d="M140-251c81 0 123 46 123 126C263-53 228-8 163 1c7 30 30 48 69 40v23c-55 16-95-15-103-61C56-3 17-48 17-125c0-80 42-126 123-126zm0 227c63 0 89-41 89-101s-29-99-89-99c-61 0-89 39-89 99S79-25 140-24" id="X"/>
      <path fill="#333" d="M30 0v-248h33v221h125V0H30" id="Y"/>
      <path fill="#333" d="M30-248c118-7 216 8 213 122C240-48 200 0 122 0H30v-248zM63-27c89 8 146-16 146-99s-60-101-146-95v194" id="Z"/>
      <path fill="#333" d="M30 0v-248h187v28H63v79h144v27H63v87h162V0H30" id="aa"/>
      <path fill="#333" d="M141 0L90-78 38 0H4l68-98-65-92h35l48 74 47-74h35l-64 92 68 98h-35" id="ab"/>
      <path fill="#333" d="M108 0H70L1-190h34L89-25l56-165h34" id="ac"/>
      <path fill="#fff" d="M205 0l-28-72H64L36 0H1l101-248h38L239 0h-34zm-38-99l-47-123c-12 45-31 82-46 123h93" id="ad"/>
      <path fill="#fff" d="M24 0v-261h32V0H24" id="ae"/>
      <path fill="#fff" d="M115-194c53 0 69 39 70 98 0 66-23 100-70 100C84 3 66-7 56-30L54 0H23l1-261h32v101c10-23 28-34 59-34zm-8 174c40 0 45-34 45-75 0-40-5-75-45-74-42 0-51 32-51 76 0 43 10 73 51 73" id="af"/>
      <path fill="#fff" d="M84 4C-5 8 30-112 23-190h32v120c0 31 7 50 39 49 72-2 45-101 50-169h31l1 190h-30c-1-10 1-25-2-33-11 22-28 36-60 37" id="ag"/>
      <path fill="#fff" d="M100-194c63 0 86 42 84 106H49c0 40 14 67 53 68 26 1 43-12 49-29l28 8c-11 28-37 45-77 45C44 4 14-33 15-96c1-61 26-98 85-98zm52 81c6-60-76-77-97-28-3 7-6 17-6 28h103" id="ah"/>
      <path fill="#fff" d="M141-36C126-15 110 5 73 4 37 3 15-17 15-53c-1-64 63-63 125-63 3-35-9-54-41-54-24 1-41 7-42 31l-33-3c5-37 33-52 76-52 45 0 72 20 72 64v82c-1 20 7 32 28 27v20c-31 9-61-2-59-35zM48-53c0 20 12 33 32 33 41-3 63-29 60-74-43 2-92-5-92 41" id="ai"/>
      <path fill="#fff" d="M114-163C36-179 61-72 57 0H25l-1-190h30c1 12-1 29 2 39 6-27 23-49 58-41v29" id="aj"/>
      <path fill="#fff" d="M100-194c62-1 85 37 85 99 1 63-27 99-86 99S16-35 15-95c0-66 28-99 85-99zM99-20c44 1 53-31 53-75 0-43-8-75-51-75s-53 32-53 75 10 74 51 75" id="ak"/>
      <path fill="#fff" d="M206 0h-36l-40-164L89 0H53L-1-190h32L70-26l43-164h34l41 164 42-164h31" id="al"/>
      <path fill="#fff" d="M143 4C61 4 22-44 18-125c-5-107 100-154 193-111 17 8 29 25 37 43l-32 9c-13-25-37-40-76-40-61 0-88 39-88 99 0 61 29 100 91 101 35 0 62-11 79-27v-45h-74v-28h105v86C228-13 192 4 143 4" id="am"/>
      <path fill="#fff" d="M115-194c55 1 70 41 70 98S169 2 115 4C84 4 66-9 55-30l1 105H24l-1-265h31l2 30c10-21 28-34 59-34zm-8 174c40 0 45-34 45-75s-6-73-45-74c-42 0-51 32-51 76 0 43 10 73 51 73" id="an"/>
      <path fill="#fff" d="M106-169C34-169 62-67 57 0H25v-261h32l-1 103c12-21 28-36 61-36 89 0 53 116 60 194h-32v-121c2-32-8-49-39-48" id="ao"/>
      <path fill="#fff" d="M140-251c81 0 123 46 123 126C263-53 228-8 163 1c7 30 30 48 69 40v23c-55 16-95-15-103-61C56-3 17-48 17-125c0-80 42-126 123-126zm0 227c63 0 89-41 89-101s-29-99-89-99c-61 0-89 39-89 99S79-25 140-24" id="ap"/>
      <path fill="#fff" d="M30 0v-248h33v221h125V0H30" id="aq"/>
      <path fill="#fff" d="M145-31C134-9 116 4 85 4 32 4 16-35 15-94c0-59 17-99 70-100 32-1 48 14 60 33 0-11-1-24 2-32h30l-1 268h-32zM93-21c41 0 51-33 51-76s-8-73-50-73c-40 0-46 35-46 75s5 74 45 74" id="ar"/>
      <path fill="#fff" d="M24-231v-30h32v30H24zM24 0v-190h32V0H24" id="as"/>
      <path fill="#fff" d="M135-143c-3-34-86-38-87 0 15 53 115 12 119 90S17 21 10-45l28-5c4 36 97 45 98 0-10-56-113-15-118-90-4-57 82-63 122-42 12 7 21 19 24 35" id="at"/>
      <g id="a">
        <use transform="matrix(.06173 0 0 .06173 0 0)" xlink:href="#w"/>
        <use transform="matrix(.06173 0 0 .06173 14.81481481 0)" xlink:href="#x"/>
        <use transform="matrix(.06173 0 0 .06173 22.16049383 0)" xlink:href="#y"/>
        <use transform="matrix(.06173 0 0 .06173 34.50617284 0)" xlink:href="#z"/>
        <use transform="matrix(.06173 0 0 .06173 50.49382716 0)" xlink:href="#A"/>
        <use transform="matrix(.06173 0 0 .06173 61.60493827 0)" xlink:href="#B"/>
        <use transform="matrix(.06173 0 0 .06173 73.95061728 0)" xlink:href="#x"/>
      </g>
      <g id="c">
        <use transform="matrix(.06173 0 0 .06173 0 0)" xlink:href="#D"/>
        <use transform="matrix(.06173 0 0 .06173 4.87654321 0)" xlink:href="#y"/>
        <use transform="matrix(.06173 0 0 .06173 17.22222222 0)" xlink:href="#E"/>
        <use transform="matrix(.06173 0 0 .06173 28.33333333 0)" xlink:href="#F"/>
        <use transform="matrix(.06173 0 0 .06173 40.67901235 0)" xlink:href="#D"/>
      </g>
      <g id="d">
        <use transform="matrix(.06173 0 0 .06173 0 0)" xlink:href="#G"/>
        <use transform="matrix(.06173 0 0 .06173 12.34567901 0)" xlink:href="#x"/>
        <use transform="matrix(.06173 0 0 .06173 19.69135802 0)" xlink:href="#y"/>
        <use transform="matrix(.06173 0 0 .06173 32.03703704 0)" xlink:href="#E"/>
        <use transform="matrix(.06173 0 0 .06173 43.14814815 0)" xlink:href="#B"/>
        <use transform="matrix(.06173 0 0 .06173 55.49382716 0)" xlink:href="#A"/>
        <use transform="matrix(.06173 0 0 .06173 66.60493827 0)" xlink:href="#A"/>
        <use transform="matrix(.06173 0 0 .06173 77.71604938 0)" xlink:href="#B"/>
        <use transform="matrix(.06173 0 0 .06173 90.0617284 0)" xlink:href="#A"/>
      </g>
      <g id="f">
        <use transform="matrix(.06173 0 0 .06173 0 0)" xlink:href="#w"/>
        <use transform="matrix(.06173 0 0 .06173 14.81481481 0)" xlink:href="#F"/>
        <use transform="matrix(.06173 0 0 .06173 27.16049383 0)" xlink:href="#E"/>
        <use transform="matrix(.06173 0 0 .06173 38.27160494 0)" xlink:href="#I"/>
        <use transform="matrix(.06173 0 0 .06173 49.38271605 0)" xlink:href="#J"/>
        <use transform="matrix(.06173 0 0 .06173 61.72839506 0)" xlink:href="#x"/>
        <use transform="matrix(.06173 0 0 .06173 69.07407407 0)" xlink:href="#y"/>
        <use transform="matrix(.06173 0 0 .06173 81.41975309 0)" xlink:href="#K"/>
        <use transform="matrix(.06173 0 0 .06173 93.7654321 0)" xlink:href="#L"/>
        <use transform="matrix(.06173 0 0 .06173 106.11111111 0)" xlink:href="#M"/>
      </g>
      <g id="g">
        <use transform="matrix(.06173 0 0 .06173 0 0)" xlink:href="#N"/>
        <use transform="matrix(.06173 0 0 .06173 14.81481481 0)" xlink:href="#E"/>
        <use transform="matrix(.06173 0 0 .06173 25.92592593 0)" xlink:href="#x"/>
        <use transform="matrix(.06173 0 0 .06173 33.27160494 0)" xlink:href="#O"/>
        <use transform="matrix(.06173 0 0 .06173 38.14814815 0)" xlink:href="#G"/>
        <use transform="matrix(.06173 0 0 .06173 50.49382716 0)" xlink:href="#P"/>
      </g>
      <g id="h">
        <use transform="matrix(.06173 0 0 .06173 0 0)" xlink:href="#Q"/>
        <use transform="matrix(.06173 0 0 .06173 14.81481481 0)" xlink:href="#y"/>
        <use transform="matrix(.06173 0 0 .06173 27.16049383 0)" xlink:href="#G"/>
        <use transform="matrix(.06173 0 0 .06173 39.50617284 0)" xlink:href="#K"/>
        <use transform="matrix(.06173 0 0 .06173 51.85185185 0)" xlink:href="#G"/>
      </g>
      <g id="i">
        <use transform="matrix(.06173 0 0 .06173 0 0)" xlink:href="#R"/>
        <use transform="matrix(.06173 0 0 .06173 20.49382716 0)" xlink:href="#B"/>
        <use transform="matrix(.06173 0 0 .06173 32.83950617 0)" xlink:href="#S"/>
        <use transform="matrix(.06173 0 0 .06173 45.18518519 0)" xlink:href="#A"/>
        <use transform="matrix(.06173 0 0 .06173 56.2962963 0)" xlink:href="#O"/>
        <use transform="matrix(.06173 0 0 .06173 61.1728395 0)" xlink:href="#P"/>
        <use transform="matrix(.06173 0 0 .06173 67.34567901 0)" xlink:href="#B"/>
      </g>
      <g id="j">
        <use transform="matrix(.06173 0 0 .06173 0 0)" xlink:href="#T"/>
        <use transform="matrix(.06173 0 0 .06173 15.98765432 0)" xlink:href="#y"/>
        <use transform="matrix(.06173 0 0 .06173 28.33333333 0)" xlink:href="#L"/>
        <use transform="matrix(.06173 0 0 .06173 40.67901235 0)" xlink:href="#P"/>
        <use transform="matrix(.06173 0 0 .06173 46.85185185 0)" xlink:href="#B"/>
        <use transform="matrix(.06173 0 0 .06173 59.19753086 0)" xlink:href="#L"/>
        <use transform="matrix(.06173 0 0 .06173 71.54320988 0)" xlink:href="#P"/>
      </g>
      <g id="k">
        <use transform="matrix(.06173 0 0 .06173 0 0)" xlink:href="#U"/>
        <use transform="matrix(.06173 0 0 .06173 13.51851852 0)" xlink:href="#O"/>
        <use transform="matrix(.06173 0 0 .06173 18.39506173 0)" xlink:href="#L"/>
        <use transform="matrix(.06173 0 0 .06173 30.74074074 0)" xlink:href="#E"/>
        <use transform="matrix(.06173 0 0 .06173 41.85185185 0)" xlink:href="#V"/>
      </g>
      <g id="l">
        <use transform="matrix(.06173 0 0 .06173 0 0)" xlink:href="#W"/>
        <use transform="matrix(.06173 0 0 .06173 17.28395062 0)" xlink:href="#x"/>
        <use transform="matrix(.06173 0 0 .06173 24.62962963 0)" xlink:href="#F"/>
        <use transform="matrix(.06173 0 0 .06173 36.97530864 0)" xlink:href="#G"/>
        <use transform="matrix(.06173 0 0 .06173 49.32098765 0)" xlink:href="#V"/>
        <use transform="matrix(.06173 0 0 .06173 61.66666667 0)" xlink:href="#X"/>
        <use transform="matrix(.06173 0 0 .06173 78.95061728 0)" xlink:href="#Y"/>
      </g>
      <g id="m">
        <use transform="matrix(.06173 0 0 .06173 0 0)" xlink:href="#Y"/>
        <use transform="matrix(.06173 0 0 .06173 12.34567901 0)" xlink:href="#y"/>
        <use transform="matrix(.06173 0 0 .06173 24.69135802 0)" xlink:href="#E"/>
        <use transform="matrix(.06173 0 0 .06173 35.80246914 0)" xlink:href="#F"/>
        <use transform="matrix(.06173 0 0 .06173 48.14814815 0)" xlink:href="#D"/>
      </g>
      <g id="n">
        <use transform="matrix(.06173 0 0 .06173 0 0)" xlink:href="#Z"/>
        <use transform="matrix(.06173 0 0 .06173 15.98765432 0)" xlink:href="#w"/>
      </g>
      <g id="o">
        <use transform="matrix(.06173 0 0 .06173 0 0)" xlink:href="#aa"/>
        <use transform="matrix(.06173 0 0 .06173 14.81481481 0)" xlink:href="#ab"/>
        <use transform="matrix(.06173 0 0 .06173 25.92592593 0)" xlink:href="#P"/>
        <use transform="matrix(.06173 0 0 .06173 32.09876543 0)" xlink:href="#B"/>
        <use transform="matrix(.06173 0 0 .06173 44.44444444 0)" xlink:href="#x"/>
        <use transform="matrix(.06173 0 0 .06173 51.79012346 0)" xlink:href="#L"/>
        <use transform="matrix(.06173 0 0 .06173 64.13580247 0)" xlink:href="#F"/>
        <use transform="matrix(.06173 0 0 .06173 76.48148148 0)" xlink:href="#D"/>
      </g>
      <g id="p">
        <use transform="matrix(.06173 0 0 .06173 0 0)" xlink:href="#N"/>
        <use transform="matrix(.06173 0 0 .06173 14.81481481 0)" xlink:href="#B"/>
        <use transform="matrix(.06173 0 0 .06173 27.16049383 0)" xlink:href="#x"/>
        <use transform="matrix(.06173 0 0 .06173 34.50617284 0)" xlink:href="#ac"/>
        <use transform="matrix(.06173 0 0 .06173 45.61728395 0)" xlink:href="#B"/>
        <use transform="matrix(.06173 0 0 .06173 57.96296296 0)" xlink:href="#x"/>
      </g>
      <g id="q">
        <use transform="scale(.04938)" xlink:href="#ad"/>
        <use transform="matrix(.04938 0 0 .04938 11.85185185 0)" xlink:href="#ae"/>
        <use transform="matrix(.04938 0 0 .04938 15.75308642 0)" xlink:href="#ae"/>
      </g>
      <g id="r">
        <use transform="scale(.04938)" xlink:href="#af"/>
        <use transform="matrix(.04938 0 0 .04938 9.87654321 0)" xlink:href="#ae"/>
        <use transform="matrix(.04938 0 0 .04938 13.77777778 0)" xlink:href="#ag"/>
        <use transform="matrix(.04938 0 0 .04938 23.65432099 0)" xlink:href="#ah"/>
      </g>
      <g id="s">
        <use transform="scale(.04938)" xlink:href="#ai"/>
        <use transform="matrix(.04938 0 0 .04938 9.87654321 0)" xlink:href="#aj"/>
        <use transform="matrix(.04938 0 0 .04938 15.75308642 0)" xlink:href="#aj"/>
        <use transform="matrix(.04938 0 0 .04938 21.62962963 0)" xlink:href="#ak"/>
        <use transform="matrix(.04938 0 0 .04938 31.50617284 0)" xlink:href="#al"/>
      </g>
      <g id="t">
        <use transform="scale(.04938)" xlink:href="#ai"/>
        <use transform="matrix(.04938 0 0 .04938 9.87654321 0)" xlink:href="#aj"/>
        <use transform="matrix(.04938 0 0 .04938 15.75308642 0)" xlink:href="#ah"/>
      </g>
      <g id="u">
        <use transform="scale(.04938)" xlink:href="#am"/>
        <use transform="matrix(.04938 0 0 .04938 13.8271605 0)" xlink:href="#aj"/>
        <use transform="matrix(.04938 0 0 .04938 19.7037037 0)" xlink:href="#ai"/>
        <use transform="matrix(.04938 0 0 .04938 29.58024691 0)" xlink:href="#an"/>
        <use transform="matrix(.04938 0 0 .04938 39.45679012 0)" xlink:href="#ao"/>
        <use transform="matrix(.04938 0 0 .04938 49.33333333 0)" xlink:href="#ap"/>
        <use transform="matrix(.04938 0 0 .04938 63.16049383 0)" xlink:href="#aq"/>
      </g>
      <g id="v">
        <use transform="scale(.04938)" xlink:href="#ar"/>
        <use transform="matrix(.04938 0 0 .04938 9.87654321 0)" xlink:href="#ag"/>
        <use transform="matrix(.04938 0 0 .04938 19.75308642 0)" xlink:href="#ah"/>
        <use transform="matrix(.04938 0 0 .04938 29.62962963 0)" xlink:href="#aj"/>
        <use transform="matrix(.04938 0 0 .04938 35.50617284 0)" xlink:href="#as"/>
        <use transform="matrix(.04938 0 0 .04938 39.4074074 0)" xlink:href="#ah"/>
        <use transform="matrix(.04938 0 0 .04938 49.28395062 0)" xlink:href="#at"/>
      </g>
      <use transform="matrix(.06173 0 0 .06173 0 0)" xlink:href="#C" id="b"/>
      <use transform="matrix(.06173 0 0 .06173 0 0)" xlink:href="#H" id="e"/>
    </defs>
  </g>
</svg>